<?xml version="1.0" encoding="UTF-8"?>
<svg width="220" height="264" data-name="Layer 1" version="1.1" viewBox="0 0 220 264" xmlns="http://www.w3.org/2000/svg">
 <defs>
  <style>.cls-1{fill:#ffff09;}.cls-2{fill:#fff;}</style>
 </defs>
 <title>ESL Pro League</title>
 <rect width="220" height="264"/>
 <g fill="#ffff09">
  <path class="cls-1" d="m40.994 189.68h-17.046v-108.48h25.725c7.283 0 13.482 2.324 17.976 6.509 3.565 3.255 7.748 9.453 7.748 20.146v11.778c0 10.847-4.183 17.046-7.748 20.3-4.494 4.184-10.693 6.354-17.976 6.354h-8.679zm0-60.438h8.679c2.015 0 4.649-0.31 6.353-1.86 1.861-1.7 2.325-5.114 2.325-7.748v-11.778c0-2.48-0.464-5.89-2.325-7.749-1.7-1.55-4.338-1.86-6.353-1.86h-8.679z"/>
  <path class="cls-1" d="m135.01 189.68h-17.356l-8.834-43.547h-7.749v43.547h-17.046v-108.48h25.725c7.283 0 13.482 2.324 17.976 6.509 3.565 3.255 7.748 9.453 7.748 20.146v11.622c0 10.849-4.183 17.047-7.748 20.3a15.6 15.6 0 0 1-2.48 2.014zm-16.582-81.824c0-2.48-0.464-5.89-2.325-7.749-1.7-1.55-4.338-1.86-6.353-1.86h-8.679v30.839h8.679c2.015 0 4.649-0.309 6.353-1.859 1.861-1.7 2.325-5.114 2.325-7.749z"/>
  <path class="cls-1" d="m170.2 190.92c-7.283 0-13.482-2.169-17.977-6.353-3.563-3.41-7.748-9.453-7.748-20.3v-57.65c0-10.847 4.185-16.892 7.748-20.3 4.495-4.185 10.694-6.353 17.977-6.353s13.482 2.168 17.976 6.353c3.565 3.409 7.75 9.454 7.75 20.3v57.648c0 10.849-4.185 16.892-7.75 20.3-4.494 4.186-10.693 6.355-17.976 6.355zm0-93.911c-2.014 0-4.649 0.31-6.354 1.86-1.859 1.7-2.324 5.268-2.324 7.748v57.648c0 2.48 0.465 6.045 2.324 7.749 1.7 1.55 4.34 1.86 6.354 1.86s4.805-0.31 6.354-1.86c2.014-1.7 2.324-5.269 2.324-7.749v-57.648c0-2.48-0.31-6.043-2.324-7.748-1.549-1.55-4.339-1.86-6.354-1.86z"/>
  <path class="cls-1" d="m42.223 240.96-3.213 6.932h-15.062v-44.114h6.933v37.182z"/>
  <path class="cls-1" d="m67.555 210.71h-8.755v11.092h9.767l-3.151 6.931h-6.616v12.227h11.969l-3.214 6.932h-15.692v-44.115h18.906z"/>
  <path class="cls-1" d="m95.721 240.89h-7.94l-1.261 7h-7.057l8.822-44.114h6.933l8.822 44.114h-7.058zm-1.2-6.932-2.772-15.818-2.774 15.818z"/>
  <path class="cls-1" d="m126.85 218.02v-3.908c0-1.007-0.126-2.457-0.881-3.15a4.061 4.061 0 0 0-2.647-0.757 3.989 3.989 0 0 0-2.584 0.757 4.578 4.578 0 0 0-0.945 3.15v23.444a4.575 4.575 0 0 0 0.945 3.15 3.989 3.989 0 0 0 2.584 0.757 4.061 4.061 0 0 0 2.647-0.757c0.755-0.692 0.881-2.142 0.881-3.15v-8.254h-3.465l3.213-6.932h7.185v15.188c0 4.411-1.7 6.869-3.151 8.255a10.456 10.456 0 0 1-7.31 2.584 10.679 10.679 0 0 1-7.311-2.584 11.014 11.014 0 0 1-3.151-8.255v-23.446a11.014 11.014 0 0 1 3.151-8.255 10.678 10.678 0 0 1 7.311-2.583 10.456 10.456 0 0 1 7.31 2.583c1.45 1.386 3.151 3.844 3.151 8.255v3.908z"/>
  <path class="cls-1" d="m154.76 248.39a10.456 10.456 0 0 1-7.31-2.584c-1.449-1.386-3.151-3.844-3.151-8.255v-33.779h6.932v33.779c0 1.008 0.126 2.458 0.882 3.15a4.059 4.059 0 0 0 2.647 0.757 3.99 3.99 0 0 0 2.584-0.757 4.576 4.576 0 0 0 0.946-3.15v-33.779h6.931v33.779a11.011 11.011 0 0 1-3.151 8.255 10.676 10.676 0 0 1-7.31 2.584z"/>
  <path class="cls-1" d="m191.94 210.71h-8.76v11.092h9.768l-3.152 6.93h-6.617v12.227h11.974l-3.214 6.932h-15.691v-44.114h18.906z"/>
 </g>
 <g fill="#fff">
  <path class="cls-2" d="m86.189 53.4a10.047 10.047 0 0 0 10.047 10.044h24.493v-10.044h-23.058v-7.2h21.545v-8.914h-21.545v-6.956h23.058v-10.047h-24.5a10.04 10.04 0 0 0-10.04 10.04z"/>
  <path class="cls-2" d="m159.25 50.359a13.078 13.078 0 0 0-13.078-13.073h-10.392v-6.956h21.394v-10.047h-19.916a12.96 12.96 0 0 0-12.96 12.96 12.96 12.96 0 0 0 12.96 12.957h10.51v7.2h-21.394v10.044h19.8a13.078 13.078 0 0 0 13.076-13.085z"/>
  <path class="cls-2" d="m173.4 63.444h21.755v-10.044h-20.316v-33.117h-11.483v33.117a10.047 10.047 0 0 0 10.044 10.044z"/>
  <circle class="cls-2" transform="rotate(-9.208)" cx="41.078" cy="49.17" r="26.349" stroke-width=".99988"/>
 </g>
 <path d="m49.425 20.358-20.051 31.842a21.546 21.546 0 0 0 2.326 3.471l30.438-30.435a21.523 21.523 0 0 0-12.713-4.878z"/>
 <path d="m65.218 28.334-30.418 30.417a21.714 21.714 0 0 0 3.5 2.317l31.731-19.984a21.521 21.521 0 0 0-4.813-12.75z"/>
 <path d="m69.562 46.542-26.133 16.458a21.651 21.651 0 0 0 26.133-16.458z"/>
</svg>
